PathFileType	3	(X/Y/Z)	F:\ViconData\AntennenMessung\Messung1\Session1\ID07.trc
DataRate	CameraRate	NumFrames	NumMarkers	Units	OrigDataRate	OrigDataStartFrame	OrigNumFrames
120.0	120.0	4	70	mm	120.0	1	856	
Frame#	Time	Ashort			Along			Atop			A4			Bshort			Blong			Btop			B4			Cshort			Clong			Ctop			C4			Dshort			Dlong			Dtop			D4			Eshort			Elong			Etop			E4			Fshort			Flong			Ftop			F4			Gshort			Glong			Gtop			G4			Hshort			Hlong			Htop			H4			I1			I2			I3			I4			I5			WandAshort			WandAlong			WandAtop			WandA4			WandA15			WandBshort			WandB4			WandB5			WandBtop			WandBlong			WandCshort			WandClong			WandCtop			WandC4			WandC5			Acenter			Aantenna			Bcenter			Bantenna			Ccenter			Cantenna			Dcenter			Dantenna			Ecenter			Eantenna			Fcenter			Fantenna			Gcenter			Gantenna			Hcenter			Hantenna			Icenter			Iantenna			
		X1	Y1	Z1	X2	Y2	Z2	X3	Y3	Z3	X4	Y4	Z4	X5	Y5	Z5	X6	Y6	Z6	X7	Y7	Z7	X8	Y8	Z8	X9	Y9	Z9	X10	Y10	Z10	X11	Y11	Z11	X12	Y12	Z12	X13	Y13	Z13	X14	Y14	Z14	X15	Y15	Z15	X16	Y16	Z16	X17	Y17	Z17	X18	Y18	Z18	X19	Y19	Z19	X20	Y20	Z20	X21	Y21	Z21	X22	Y22	Z22	X23	Y23	Z23	X24	Y24	Z24	X25	Y25	Z25	X26	Y26	Z26	X27	Y27	Z27	X28	Y28	Z28	X29	Y29	Z29	X30	Y30	Z30	X31	Y31	Z31	X32	Y32	Z32	X33	Y33	Z33	X34	Y34	Z34	X35	Y35	Z35	X36	Y36	Z36	X37	Y37	Z37	X38	Y38	Z38	X39	Y39	Z39	X40	Y40	Z40	X41	Y41	Z41	X42	Y42	Z42	X43	Y43	Z43	X44	Y44	Z44	X45	Y45	Z45	X46	Y46	Z46	X47	Y47	Z47	X48	Y48	Z48	X49	Y49	Z49	X50	Y50	Z50	X51	Y51	Z51	X52	Y52	Z52	X53	Y53	Z53	X54	Y54	Z54	X55	Y55	Z55	X56	Y56	Z56	X57	Y57	Z57	X58	Y58	Z58	X59	Y59	Z59	X60	Y60	Z60	X61	Y61	Z61	X62	Y62	Z62	X63	Y63	Z63	X64	Y64	Z64	X65	Y65	Z65	X66	Y66	Z66	X67	Y67	Z67	X68	Y68	Z68	X69	Y69	Z69	X70	Y70	Z70	
1	0	-1038.2666	214.59055	-1644.0864	-1109.3285	204.1468	-1599.61	-1063.351	172.94017	-1626.0419	-1054.099	262.20724	-1634.8937	-1352.656	235.36761	1003.7723	-1281.3625	227.52403	1052.1705	-1322.78	194.2774	1020.6528	-1284.5031	287.92438	1052.6598	814.19269	187.55055	1209.403	892.15875	178.22559	1179.0889	844.45551	145.37718	1198.2625	861.172	292.27411	1167.983	1115.9744	210.0509	-1401.8586	1056.2737	194.01526	-1460.2585	1095.1628	162.30914	-1423.8844	1069.4492	238.32465	-1426.0802	-1204.505	1685.9393	-1563.364	-1129.1298	1688.2729	-1606.0132	-1173.1348	1724.4855	-1581.9955	-1133.5869	1581.1637	-1603.6172	-1239.7611	1699.2566	1119.4532	-1309.3947	1698.6846	1071.8676	-1270.4136	1736.2177	1096.8638	-1245.691	1592.8257	1110.6726	988.87317	1664.1558	1162.2262	957.20093	1700.3667	1183.8051	921.62335	1662.4436	1214.8446	939.7926	1659.324	1159.8993	999.2605	1668.4559	-1579.4189	1058.8964	1669.9551	-1518.8202	1025.105	1707.9879	-1551.207	1059.3489	1672.2375	-1585.6316	354.8555	169.06296	19.614523	349.24683	177.09979	103.31464	352.30246	132.57008	61.242085	385.16168	173.36865	57.521431	304.87759	171.78749	53.520844																																														-1068.3368	210.1712	-1625.2659	-1073.5126	248.81786	-1624.4603	-1321.5238	231.94249	1024.9065	-1320.2321	270.6749	1029.2808	848.203	183.4828	1196.1793	852.01447	222.23824	1194.0604	1088.7788	202.74619	-1428.4614	1082.7347	241.03052	-1432.7949	-1171.8767	1686.9493	-1581.8258	-1170.5703	1647.9717	-1581.6498	-1270.9702	1699.0001	1098.1257	-1271.5531	1660.0269	1099.4473	952.37744	1705.8815	1187.0913	972.35962	1734.1047	1169.0592	1026.5603	1669.1422	-1551.6782	1028.0203	1630.1724	-1552.151	352.32413	172.69025	57.391212	352.34509	211.51183	53.664982
2	0.0083333333	-1038.266	214.56361	-1644.0709	-1109.3602	204.1342	-1599.6112	-1063.3802	172.89491	-1626.0435	-1054.1034	262.1463	-1634.9919	-1352.6338	235.43771	1003.8027	-1281.3665	227.46155	1052.2952	-1322.8461	194.16209	1020.7782	-1284.4418	287.91193	1052.6019	814.05554	187.45264	1209.3755	892.4425	178.27074	1179.0312	844.51257	145.33415	1198.3829	860.89331	292.3035	1167.2313	1115.9801	210.05223	-1401.848	1056.2665	194.03581	-1460.243	1095.1436	162.37878	-1423.9066	1069.451	238.35951	-1426.0712	-1204.4982	1685.9406	-1563.3612	-1129.1193	1688.2805	-1606.0197	-1173.1287	1724.4808	-1581.9926	-1133.5634	1581.1145	-1603.5551	-1239.7443	1699.2422	1119.4495	-1309.5222	1698.9441	1071.9749	-1270.5614	1736.379	1096.9122	-1245.6217	1592.728	1110.6453	988.88416	1664.1807	1162.2455	957.21887	1700.4177	1183.8052	921.65338	1662.3823	1214.746	939.78217	1659.3328	1159.9271	999.26996	1668.4468	-1579.4221	1058.9054	1669.9601	-1518.8236	1025.1154	1707.9893	-1551.1957	1059.3387	1672.2155	-1585.6307	354.84552	169.09241	19.629105	349.23383	177.10786	103.30646	352.30099	132.59538	61.162727	385.16492	173.39206	57.551563	304.8653	171.79839	53.536518																																														-1068.3528	210.14989	-1625.2556	-1073.5115	248.79857	-1624.4384	-1321.4866	231.95174	1024.9962	-1320.0933	270.68631	1029.3196	848.12799	183.46153	1196.1857	851.80371	222.22362	1193.9519	1088.7672	202.75317	-1428.4598	1082.7206	241.03889	-1432.7777	-1171.8695	1686.9532	-1581.8263	-1170.5619	1647.9756	-1581.6537	-1271.1827	1699.1078	1098.0597	-1271.8328	1660.1317	1099.2598	952.49323	1705.8256	1187.0227	972.51971	1734.0364	1169.0199	1026.5822	1669.1398	-1551.6688	1028.0533	1630.1704	-1552.1433	352.31772	172.703	57.32193	352.33386	211.52539	53.604206
3	0.016666667	-1038.2577	214.58923	-1644.0823	-1109.3531	204.17567	-1599.6217	-1063.34	172.95308	-1626.0632	-1054.0942	262.17346	-1634.9957	-1352.5798	235.48109	1003.7594	-1281.3389	227.49126	1052.199	-1322.7417	194.20874	1020.6766	-1284.4873	287.86823	1052.6199	814.09601	187.6974	1209.4192	892.45874	178.29837	1179.0524	844.47711	145.32523	1198.3643	861.14209	292.22018	1167.6407	1115.9884	210.05388	-1401.8511	1056.7502	194.23581	-1460.4473	1095.2496	162.48589	-1423.9386	1069.4772	238.31604	-1426.101	-1204.5056	1685.9523	-1563.3684	-1129.1426	1688.2927	-1606.0334	-1173.1389	1724.506	-1581.9996	-1133.5582	1581.0961	-1603.5521	-1239.7574	1699.2512	1119.4554	-1309.5381	1698.9509	1071.9758	-1270.4612	1736.2683	1096.89	-1245.6686	1592.7915	1110.6665	988.89142	1664.1724	1162.2496	957.16351	1700.4268	1183.7803	921.60883	1662.4417	1214.7522	939.81348	1659.3381	1159.9005	999.2655	1668.4475	-1579.4103	1058.9088	1669.9574	-1518.8197	1025.1072	1707.9875	-1551.203	1059.3424	1672.2184	-1585.6248	354.83728	169.1198	19.653603	349.22928	177.08586	103.30272	352.32623	132.56697	61.217022	385.14896	173.38573	57.569633	304.83334	171.81683	53.499798																																														-1068.3096	210.18745	-1625.2888	-1073.468	248.83644	-1624.4852	-1321.4117	231.98552	1024.9517	-1320.0483	270.71448	1029.3346	848.22681	183.60364	1196.1929	852.02301	222.35614	1193.9945	1089.0149	202.85127	-1428.5321	1083.0989	241.15276	-1432.8909	-1171.8813	1686.9653	-1581.8378	-1170.5757	1647.9875	-1581.6697	-1271.1306	1699.1161	1098.1088	-1271.8328	1660.1434	1099.3873	952.40314	1705.8662	1187.0106	972.40955	1734.0781	1168.9877	1026.5685	1669.1385	-1551.6735	1028.0347	1630.1691	-1552.1455	352.30716	172.71373	57.392487	352.28873	211.53796	53.693947
4	0.025	-1038.2603	214.59608	-1644.0851	-1109.3687	204.08736	-1599.5883	-1063.3307	172.92319	-1626.0289	-1054.1188	262.12622	-1634.985	-1352.6687	235.41199	1003.8413	-1281.3549	227.53795	1052.1926	-1322.8669	194.08075	1020.7273	-1284.4241	287.87476	1052.5879	813.93884	187.51913	1209.4087	892.13605	178.18661	1179.0634	844.49249	145.43246	1198.2758	861.11377	292.21844	1167.8678	1115.9838	210.05685	-1401.8478	1056.7456	194.2513	-1460.4557	1095.1959	162.34473	-1423.8459	1070.1832	238.87	-1426.1534	-1204.5013	1685.9583	-1563.3733	-1129.2051	1688.47	-1606.785	-1173.1444	1724.4989	-1581.9989	-1133.5773	1581.1493	-1603.6152	-1239.7795	1699.2833	1119.4656	-1309.4121	1698.7251	1071.8815	-1270.4253	1736.2134	1096.8672	-1245.748	1592.9261	1110.6885	988.87488	1664.1781	1162.2238	957.16394	1700.4272	1183.7751	922.29492	1662.1775	1214.8901	939.7948	1659.3286	1159.9336	999.26483	1668.4471	-1579.4044	1058.9092	1669.9565	-1518.8199	1025.11	1707.996	-1551.2004	1059.3499	1672.2319	-1585.6288	354.84116	169.12637	19.644545	349.23587	177.10527	103.31783	352.30734	132.56056	61.210175	385.16931	173.40654	57.562141	304.86749	171.78247	53.533062																																														-1068.3489	210.14944	-1625.2567	-1073.5581	248.79167	-1624.4552	-1321.5425	231.97522	1024.9451	-1320.1887	270.71249	1029.2567	848.18976	183.4314	1196.1171	851.96063	222.18619	1193.9155	1089.0171	202.86176	-1428.5275	1083.1755	241.16695	-1432.9534	-1171.97	1687.0433	-1582.1292	-1170.7478	1648.0627	-1582.2646	-1270.9935	1699.0331	1098.1351	-1271.5892	1660.0603	1099.4641	952.72424	1705.5023	1186.7924	972.52405	1733.6929	1168.5099	1026.5696	1669.1381	-1551.6691	1028.0334	1630.1685	-1552.1393	352.3132	172.72479	57.380592	352.31882	211.54872	53.678806
